<svg width="213" height="150" viewBox="0 0 213 150" fill="none" xmlns="http://www.w3.org/2000/svg">
<rect x="31" width="150" height="150" rx="20" fill="#FAFAFA"/>
<path d="M26.5043 56.7965C54.953 51.0054 80.5513 67.5331 93.8174 60.5904C94.4432 60.2758 94.9894 59.8249 95.4165 59.2703C95.8437 58.7157 96.1411 58.0712 96.2873 57.3833C98.9437 43.7182 51.2224 12.3881 26.7547 40.8222L25.4639 44.3247L26.5043 56.7965Z" fill="#F78585"/>
<path d="M26.7402 40.8267C21.751 74.0085 86.605 111.546 82.3386 124.106C82.0509 125.045 81.4416 125.85 80.6169 126.378C62.5941 139.32 -2.08348 83.881 26.7402 40.8267Z" fill="#D1828B"/>
<path d="M83.588 76.124C84.188 75.02 85.076 74.18 86.252 73.604C87.428 73.028 88.856 72.74 90.536 72.74V76.088C90.344 76.064 90.08 76.052 89.744 76.052C87.872 76.052 86.396 76.616 85.316 77.744C84.26 78.848 83.732 80.432 83.732 82.496V92H80.276V72.92H83.588V76.124ZM111.864 82.568C111.864 82.832 111.84 83.18 111.792 83.612H96.3118C96.5278 85.292 97.2598 86.648 98.5078 87.68C99.7798 88.688 101.352 89.192 103.224 89.192C105.504 89.192 107.34 88.424 108.732 86.888L110.64 89.12C109.776 90.128 108.696 90.896 107.4 91.424C106.128 91.952 104.7 92.216 103.116 92.216C101.1 92.216 99.3118 91.808 97.7518 90.992C96.1918 90.152 94.9798 88.988 94.1158 87.5C93.2758 86.012 92.8558 84.332 92.8558 82.46C92.8558 80.612 93.2638 78.944 94.0798 77.456C94.9198 75.968 96.0598 74.816 97.4998 74C98.9638 73.16 100.608 72.74 102.432 72.74C104.256 72.74 105.876 73.16 107.292 74C108.732 74.816 109.848 75.968 110.64 77.456C111.456 78.944 111.864 80.648 111.864 82.568ZM102.432 75.656C100.776 75.656 99.3838 76.16 98.2558 77.168C97.1518 78.176 96.5038 79.496 96.3118 81.128H108.552C108.36 79.52 107.7 78.212 106.572 77.204C105.468 76.172 104.088 75.656 102.432 75.656ZM122.135 92.216C120.575 92.216 119.075 92.012 117.635 91.604C116.195 91.172 115.067 90.632 114.251 89.984L115.691 87.248C116.531 87.848 117.551 88.328 118.751 88.688C119.951 89.048 121.163 89.228 122.387 89.228C125.411 89.228 126.923 88.364 126.923 86.636C126.923 86.06 126.719 85.604 126.311 85.268C125.903 84.932 125.387 84.692 124.763 84.548C124.163 84.38 123.299 84.2 122.171 84.008C120.635 83.768 119.375 83.492 118.391 83.18C117.431 82.868 116.603 82.34 115.907 81.596C115.211 80.852 114.863 79.808 114.863 78.464C114.863 76.736 115.583 75.356 117.023 74.324C118.463 73.268 120.395 72.74 122.819 72.74C124.091 72.74 125.363 72.896 126.635 73.208C127.907 73.52 128.951 73.94 129.767 74.468L128.291 77.204C126.731 76.196 124.895 75.692 122.783 75.692C121.319 75.692 120.203 75.932 119.435 76.412C118.667 76.892 118.283 77.528 118.283 78.32C118.283 78.944 118.499 79.436 118.931 79.796C119.363 80.156 119.891 80.42 120.515 80.588C121.163 80.756 122.063 80.948 123.215 81.164C124.751 81.428 125.987 81.716 126.923 82.028C127.883 82.316 128.699 82.82 129.371 83.54C130.043 84.26 130.379 85.268 130.379 86.564C130.379 88.292 129.635 89.672 128.147 90.704C126.683 91.712 124.679 92.216 122.135 92.216ZM142.87 92.216C140.974 92.216 139.27 91.796 137.758 90.956C136.246 90.116 135.058 88.964 134.194 87.5C133.354 86.012 132.934 84.332 132.934 82.46C132.934 80.588 133.354 78.92 134.194 77.456C135.058 75.968 136.246 74.816 137.758 74C139.27 73.16 140.974 72.74 142.87 72.74C144.766 72.74 146.458 73.16 147.946 74C149.458 74.816 150.634 75.968 151.474 77.456C152.338 78.92 152.77 80.588 152.77 82.46C152.77 84.332 152.338 86.012 151.474 87.5C150.634 88.964 149.458 90.116 147.946 90.956C146.458 91.796 144.766 92.216 142.87 92.216ZM142.87 89.192C144.094 89.192 145.186 88.916 146.146 88.364C147.13 87.788 147.898 86.996 148.45 85.988C149.002 84.956 149.278 83.78 149.278 82.46C149.278 81.14 149.002 79.976 148.45 78.968C147.898 77.936 147.13 77.144 146.146 76.592C145.186 76.04 144.094 75.764 142.87 75.764C141.646 75.764 140.542 76.04 139.558 76.592C138.598 77.144 137.83 77.936 137.254 78.968C136.702 79.976 136.426 81.14 136.426 82.46C136.426 83.78 136.702 84.956 137.254 85.988C137.83 86.996 138.598 87.788 139.558 88.364C140.542 88.916 141.646 89.192 142.87 89.192ZM181.417 72.74C183.817 72.74 185.713 73.436 187.105 74.828C188.521 76.22 189.229 78.284 189.229 81.02V92H185.773V81.416C185.773 79.568 185.341 78.176 184.477 77.24C183.637 76.304 182.425 75.836 180.841 75.836C179.089 75.836 177.697 76.388 176.665 77.492C175.633 78.572 175.117 80.132 175.117 82.172V92H171.661V81.416C171.661 79.568 171.229 78.176 170.365 77.24C169.525 76.304 168.313 75.836 166.729 75.836C164.977 75.836 163.585 76.388 162.553 77.492C161.521 78.572 161.005 80.132 161.005 82.172V92H157.549V72.92H160.861V75.764C161.557 74.78 162.469 74.036 163.597 73.532C164.725 73.004 166.009 72.74 167.449 72.74C168.937 72.74 170.257 73.04 171.409 73.64C172.561 74.24 173.449 75.116 174.073 76.268C174.793 75.164 175.789 74.3 177.061 73.676C178.357 73.052 179.809 72.74 181.417 72.74ZM212.121 72.92L202.869 93.908C202.053 95.852 201.093 97.22 199.989 98.012C198.909 98.804 197.601 99.2 196.065 99.2C195.129 99.2 194.217 99.044 193.329 98.732C192.465 98.444 191.745 98.012 191.169 97.436L192.645 94.844C193.629 95.78 194.769 96.248 196.065 96.248C196.905 96.248 197.601 96.02 198.153 95.564C198.729 95.132 199.245 94.376 199.701 93.296L200.313 91.964L191.889 72.92H195.489L202.149 88.184L208.737 72.92H212.121Z" fill="#D1828B"/>
</svg>
